<svg width="279" height="279" viewBox="0 0 279 279" fill="none" xmlns="http://www.w3.org/2000/svg">
<path d="M139.498 0C62.5761 0 0 62.5761 0 139.498C0 216.42 62.5761 278.996 139.498 278.996C216.42 278.996 278.996 216.42 278.996 139.498C278.996 62.5761 216.42 0 139.498 0ZM30.1684 194.987C49.5097 191.592 78.7184 189.352 118.336 212.68C148.529 227.936 174.416 233.793 191.665 234.605C201.385 235.048 210.515 234.507 218.709 233.03C197.325 251.166 169.691 262.141 139.498 262.141C91.8341 262.141 50.4694 234.777 30.1684 194.987ZM255.866 178.156C242.873 191.567 225.746 196.858 206.381 200.057C180.199 204.387 145.576 199.786 118.065 192.084C100.127 187.064 83.6153 183.102 63.9295 180.937C46.9505 179.067 31.9648 178.55 23.2292 178.427C19.1198 166.172 16.8559 153.081 16.8559 139.474C16.8559 71.853 71.8776 16.8313 139.498 16.8313C142.008 16.8313 144.518 16.9297 146.979 17.0774C142.082 22.8847 133.396 33.3427 126.235 42.9888C115.432 57.5562 102.317 72.7881 102.341 96.0665C102.366 109.699 113.292 126.235 124.709 136.472C133.248 144.149 135.069 151.113 132.067 159.652C130.467 164.204 121.535 178.008 110.437 183.668L131.673 189.082C131.673 189.082 147.594 179.263 157.732 164.081C167.92 148.8 164.745 129.434 150.744 116.614C137.111 104.138 125.275 90.8744 126.358 80.0472C127.465 69.22 130.787 59.6971 143.165 41.783C150.941 30.5129 156.871 22.4664 159.824 18.5292C217.798 28.2491 262.14 78.743 262.14 139.449C262.14 153.008 259.901 166 255.866 178.156Z" fill="#1D46CC"/>
</svg>
