<svg width="735" height="136" viewBox="0 0 735 136" fill="none" xmlns="http://www.w3.org/2000/svg">
<path d="M650.965 135.526C637.945 135.526 627.034 133.046 618.23 128.086C609.55 123.003 603.412 115.935 599.816 106.883C596.22 97.7069 595.6 87.043 597.956 74.8911L612.464 2.72406H649.291L634.969 74.3332C633.977 79.5411 633.668 84.067 634.04 87.911C634.412 91.7549 635.466 94.9789 637.202 97.5829C639.061 100.187 641.479 102.109 644.455 103.349C647.555 104.465 651.213 105.023 655.429 105.023C660.513 105.023 664.915 104.031 668.635 102.047C672.479 99.9388 675.641 96.6529 678.121 92.1889C680.725 87.601 682.709 81.6491 684.073 74.3332L698.395 2.72406H734.664L719.97 76.5651C716.126 95.9089 708.439 110.603 696.907 120.647C685.375 130.566 670.061 135.526 650.965 135.526Z" fill="#1D46CC"/>
<path d="M550.589 2.72406H587.417L561.377 132.922H524.549L550.589 2.72406ZM474.516 132.922H437.688L463.728 2.72406H500.556L474.516 132.922ZM537.383 82.1451H482.142L488.28 51.6414H543.521L537.383 82.1451Z" fill="#1D46CC"/>
<path d="M371.421 135.526C358.153 135.526 346.559 133.108 336.639 128.272C326.843 123.437 319.28 116.741 313.948 108.185C308.616 99.5049 305.95 89.523 305.95 78.2391C305.95 66.9553 307.934 56.5394 311.902 46.9915C315.87 37.4436 321.45 29.1977 328.641 22.2538C335.833 15.1859 344.389 9.73 354.309 5.88604C364.353 2.04209 375.451 0.120117 387.603 0.120117C399.631 0.120117 410.294 2.22809 419.594 6.44404C428.894 10.66 435.838 16.7359 440.426 24.6718L413.828 45.8755C410.852 40.9156 406.946 37.1336 402.111 34.5297C397.399 31.9257 391.757 30.6237 385.185 30.6237C378.861 30.6237 373.095 31.7397 367.887 33.9717C362.803 36.2037 358.401 39.3656 354.681 43.4576C350.961 47.5495 348.109 52.3855 346.125 57.9654C344.141 63.4213 343.149 69.3732 343.149 75.8212C343.149 81.6491 344.389 86.795 346.869 91.2589C349.473 95.5989 353.131 99.0089 357.843 101.489C362.679 103.845 368.383 105.023 374.955 105.023C380.783 105.023 386.363 103.845 391.695 101.489C397.151 99.1329 402.172 95.2889 406.76 89.957L428.522 111.347C421.206 120.151 412.774 126.413 403.226 130.132C393.679 133.728 383.077 135.526 371.421 135.526Z" fill="#1D46CC"/>
<path d="M213.378 135.526C199.986 135.526 188.454 133.108 178.782 128.272C169.111 123.313 161.671 116.555 156.463 107.999C151.255 99.4428 148.651 89.523 148.651 78.2391C148.651 66.8313 150.635 56.4154 154.603 46.9915C158.571 37.4436 164.151 29.1977 171.343 22.2538C178.535 15.1859 187.09 9.73 197.01 5.88604C207.054 2.04209 218.028 0.120117 229.932 0.120117C243.324 0.120117 254.856 2.60008 264.527 7.56002C274.199 12.396 281.639 19.0919 286.847 27.6478C292.055 36.2037 294.659 46.1235 294.659 57.4074C294.659 68.8152 292.675 79.2931 288.707 88.841C284.739 98.2649 279.159 106.511 271.967 113.579C264.775 120.523 256.158 125.917 246.114 129.76C236.194 133.604 225.282 135.526 213.378 135.526ZM216.54 105.023C222.988 105.023 228.692 103.845 233.652 101.489C238.736 99.1329 243.014 95.8469 246.486 91.631C250.082 87.291 252.81 82.3931 254.67 76.9371C256.53 71.4812 257.46 65.7153 257.46 59.6394C257.46 53.8114 256.22 48.7275 253.74 44.3876C251.384 40.0476 247.912 36.6996 243.324 34.3437C238.86 31.8637 233.342 30.6237 226.77 30.6237C220.446 30.6237 214.742 31.8017 209.658 34.1577C204.574 36.5136 200.234 39.8616 196.638 44.2015C193.166 48.4175 190.5 53.2534 188.64 58.7094C186.78 64.1653 185.85 69.9312 185.85 76.0071C185.85 81.7111 187.028 86.795 189.384 91.2589C191.864 95.5989 195.336 99.0089 199.8 101.489C204.388 103.845 209.968 105.023 216.54 105.023Z" fill="#1D46CC"/>
<path d="M0.121826 132.922L26.1615 2.72406H92.0047C106.76 2.72406 117.982 5.39003 125.67 10.722C133.358 15.9299 137.202 23.4318 137.202 33.2277C137.202 41.2876 134.97 48.1075 130.506 53.6874C126.042 59.2673 120.028 63.5453 112.464 66.5212C104.9 69.3732 96.4066 70.7992 86.9827 70.7992L92.1907 61.8713C104.219 61.8713 113.766 64.4753 120.834 69.6832C127.902 74.8911 131.436 82.207 131.436 91.6309C131.436 101.055 128.77 108.805 123.438 114.881C118.23 120.957 111.1 125.483 102.049 128.458C93.1206 131.434 83.0148 132.922 71.7309 132.922H0.121826ZM41.7853 106.325H73.7769C80.2248 106.325 85.3087 105.023 89.0287 102.419C92.8726 99.8148 94.7946 95.9709 94.7946 90.8869C94.7946 87.043 93.3686 84.253 90.5167 82.517C87.6647 80.7811 84.0068 79.9131 79.5428 79.9131H44.0173L49.0392 54.4314H78.6128C82.9528 54.4314 86.6107 53.8734 89.5867 52.7574C92.6867 51.6414 94.9806 49.9675 96.4686 47.7355C97.9566 45.5035 98.7006 42.7756 98.7006 39.5516C98.7006 35.9556 97.3366 33.3517 94.6086 31.7397C91.8807 30.1277 88.0987 29.3217 83.2628 29.3217H57.2231L41.7853 106.325Z" fill="#1D46CC"/>
</svg>
